<svg width="0" height="0" class="hidden">

  <symbol xmlns="http://www.w3.org/2000/svg" fill="none" viewBox="0 0 199 50" id="logo">
    <ellipse cx="25" cy="25.5" fill="#fff" rx="24" ry="24.5"></ellipse>
    <path fill="#D41443" d="M18.514.877C6.943 4.381 0 13.492 0 25.005c0 9.41 4.83 17.62 12.779 21.725 4.125 2.102 4.73.6.905-2.303-2.716-2.202-3.22-3.203-3.22-6.908 0-2.603-.603-4.705-1.509-5.506-1.81-1.502-2.012-5.406-.2-6.808.703-.6 1.408-2.603 1.508-4.405.504-6.607 7.648-12.814 14.792-12.814S39.343 14.193 39.846 20.8c.1 1.802.805 3.805 1.51 4.405 1.81 1.402 1.61 5.306-.202 6.808-.905.801-1.51 2.903-1.51 5.506 0 3.705-.502 4.706-3.219 6.908-4.226 3.304-3.019 4.505 1.71 1.602 6.642-4.105 11.572-13.015 11.572-20.924 0-15.818-16.502-28.633-31.193-24.228Z"></path>
    <path fill="#D41443" d="M19.823 12.49c-1.812.802-3.321 1.803-3.321 2.403 0 1.102 5.434 3.104 8.553 3.104 3.12 0 8.553-2.002 8.553-3.104 0-1.2-6.239-3.904-8.754-3.904-1.007.1-3.321.7-5.031 1.502ZM71.642 17.697c-1.509.4-1.81 1.702-1.81 8.91v8.41h7.143l-.301-8.71c-.302-9.11-.705-9.812-5.032-8.61ZM83.415 18.197c-3.32 1.803-4.528 4.005-4.528 8.31 0 5.907 3.22 8.71 9.157 8.31 4.025-.3 4.427-.601 4.729-3.104.302-2.503.1-2.703-3.019-2.503-3.22.3-3.32.1-3.32-3.204 0-3.303.201-3.504 3.12-3.203 2.414.2 3.32-.2 3.722-1.702.201-1.001 0-2.403-.604-3.004-1.408-1.401-6.64-1.401-9.257.1ZM95.39 18.297c-.303.801-.403 4.706-.202 8.81l.302 7.409h6.54c6.038 0 6.541-.2 6.842-2.303.302-1.902-.1-2.202-3.219-2.202-2.013 0-3.623-.5-3.623-1.001 0-.601 1.409-1.002 3.019-1.002 2.314 0 3.019-.4 3.019-2.002 0-1.602-.705-2.002-3.019-2.002-1.61 0-3.019-.5-3.019-1.001 0-.601 1.308-1.002 2.918-1.002 2.818 0 4.729-2.202 3.522-4.104-.906-1.502-12.477-1.101-13.08.4ZM115.614 17.997c-3.32 1.302-4.628 3.604-4.729 7.809-.101 7.208 2.817 9.711 10.364 9.01 2.918-.2 3.421-.7 3.421-2.803 0-2.202-.402-2.503-3.22-2.202-2.415.2-3.32-.1-3.823-1.702-.906-3.104 1.006-5.607 4.226-5.607 1.912 0 2.918-.6 3.119-1.902.704-3.204-4.427-4.705-9.358-2.603ZM127.991 17.597c-.504.4-.805 4.505-.805 9.11v8.41l3.219-.3c2.516-.2 3.422-.902 3.925-2.804l.603-2.503.805 2.703c.604 2.303 1.308 2.804 3.925 2.804 4.326 0 4.829-.701 3.018-4.205-1.107-2.203-1.308-3.304-.503-4.105 1.308-1.301 1.409-5.707.201-7.609-1.006-1.601-13.08-2.903-14.388-1.501Zm8.25 5.406c0 1.101-.402 2.002-1.006 2.002-.503 0-1.006-.9-1.006-2.002 0-1.101.503-2.003 1.006-2.003.604 0 1.006.902 1.006 2.003ZM146.002 17.697c-.403.3-.704 4.405-.704 9.01v8.31h6.54c6.339 0 6.54-.1 6.54-2.503 0-2.103-.503-2.503-3.018-2.503-1.61 0-3.019-.5-3.019-1.001 0-.601 1.107-1.001 2.516-1.001 1.811 0 2.515-.501 2.515-2.003 0-1.501-.704-2.002-2.515-2.002-1.409 0-2.516-.5-2.516-1.001 0-.6 1.409-1.001 3.019-1.001 2.515 0 3.018-.4 3.018-2.503 0-2.403-.301-2.503-5.836-2.503-3.22 0-6.238.3-6.54.7ZM166.328 17.597c-1.812.5-6.44 13.816-5.535 16.018.805 2.002 5.333 1.802 6.541-.3.905-1.702 1.006-1.702 2.817 0 2.315 2.002 7.346 2.303 7.346.4 0-.6-1.007-4.605-2.315-8.71-2.012-6.607-2.616-7.508-4.729-7.708-1.409 0-3.22.1-4.125.3Zm2.817 9.11c-.302 1.001-.503.4-.503-1.201 0-1.702.201-2.403.503-1.802.201.7.201 2.102 0 3.003ZM180.817 17.697c-.906.3-1.308 3.103-1.308 8.91v8.41h2.918c2.515 0 3.018-.501 3.421-2.804.402-2.603.402-2.603 1.207-.5.403 1.301 1.409 2.303 2.113 2.303.805 0 1.912-1.002 2.415-2.303.805-2.103.906-2.103.906.6.101 2.503.402 2.804 3.22 2.503l3.119-.3.101-8.31c.201-7.708.1-8.309-2.013-8.81-3.22-.8-5.936 1.102-6.842 4.806l-.704 3.304-1.107-3.504c-1.409-4.706-3.522-5.907-7.446-4.305ZM14.087 18.698c-.302.4-.604 1.702-.604 3.003 0 2.303.1 2.303 11.572 2.303 11.47 0 11.571 0 11.571-2.303 0-3.404-.905-3.804-4.125-2.202-3.623 1.902-11.27 1.902-14.892 0-1.61-.801-3.12-1.101-3.522-.801ZM11.169 27.608c-1.61 1.702 1.107 2.403 8.955 2.403h8.452v3.504c0 1.902.503 3.504 1.007 3.504.603 0 1.006-1.502 1.006-3.404 0-3.304.201-3.504 4.025-3.805 2.213-.2 4.025-.8 4.025-1.3 0-1.102-26.363-2.003-27.47-.902Z"></path>
    <path fill="#D41443" d="M13.483 36.418c0 5.506 1.912 6.608 11.572 6.608s11.571-1.102 11.571-6.608c0-2.403-.503-3.404-1.51-3.404-.905 0-1.508.901-1.508 2.403 0 5.606-7.648 6.107-8.755.6-.503-2.903-.805-3.003-5.936-3.003h-5.434v3.404ZM19.722 47.731c.604 3.204 10.867 2.904 10.867-.2 0-1.101-1.308-1.502-5.635-1.502-4.729 0-5.534.3-5.232 1.702Z"></path>
  </symbol>
  
  <symbol xmlns="http://www.w3.org/2000/svg" fill="none" viewBox="0 0 30 30" id="circle-section-1">
    <circle cx="15" cy="15" r="15" fill="#fff"></circle>
  </symbol>
  
  <symbol xmlns="http://www.w3.org/2000/svg" fill="none" viewBox="0 0 6 10" id="greater-than-section-1">
    <path stroke="#D41443" stroke-linecap="round" stroke-linejoin="round" stroke-width="2" d="m1 1 4 4-4 4"></path>
  </symbol>
  
  <symbol xmlns="http://www.w3.org/2000/svg" fill="none" viewBox="0 0 54 40" id="quote-mark-section-4">
    <path fill="#E1E1E1" d="M40.018 0c2.41 0 4.687.65 6.83 1.951 2.143 1.301 3.884 3.171 5.223 5.61C53.357 10 54 12.873 54 16.179s-.804 6.531-2.41 9.675c-.536 1.138-1.5 2.601-2.894 4.39-1.446 1.788-2.785 3.333-4.017 4.634L39.616 40 36 33.984a27.548 27.548 0 0 0 6.67-5.854c1.928-2.276 2.892-4.363 2.892-6.26 0-.976-.214-1.762-.642-2.358-1.875 1.355-3.965 2.033-6.268 2.033-1.66 0-3.241-.515-4.741-1.545a10.708 10.708 0 0 1-3.697-3.902c-.964-1.572-1.446-3.198-1.446-4.878 0-1.898.562-3.713 1.687-5.448a12.784 12.784 0 0 1 4.26-4.227C36.428.515 38.195 0 40.017 0ZM11.17 0c2.41 0 4.687.65 6.83 1.951 2.143 1.301 3.884 3.17 5.223 5.61 1.286 2.439 1.929 5.312 1.929 8.618 0 2.33-.295 4.417-.884 6.26-.59 1.897-1.607 3.875-3.054 5.935-1.393 1.951-2.705 3.577-3.937 4.878-1.232 1.355-3.375 3.604-6.429 6.748l-3.616-6.016a27.551 27.551 0 0 0 6.67-5.854c1.928-2.276 2.893-4.363 2.893-6.26 0-.976-.215-1.762-.643-2.358-1.875 1.355-3.965 2.033-6.268 2.033-1.66 0-3.241-.515-4.741-1.545a10.708 10.708 0 0 1-3.697-3.902C.482 14.526 0 12.9 0 11.22c0-1.898.536-3.713 1.607-5.448a12.784 12.784 0 0 1 4.26-4.227C7.58.515 9.347 0 11.17 0Z"></path>
  </symbol>
  
  <symbol xmlns="http://www.w3.org/2000/svg" fill="none" viewBox="0 0 821 2" id="underline-section-4">
    <path stroke="#E1E1E1" d="M0 1h821"></path>
  </symbol>
  
  <symbol xmlns="http://www.w3.org/2000/svg" fill="none" viewBox="0 0 32 4" id="three-dots-section-4">
    <circle cx="16" cy="2" r="2" fill="#C7133E"></circle>
    <circle cx="2" cy="2" r="2" fill="#C7133E"></circle>
    <circle cx="30" cy="2" r="2" fill="#C7133E"></circle>
  </symbol>
  
  <symbol xmlns="http://www.w3.org/2000/svg" fill="none" viewBox="0 0 12 12" id="house-section-4">
    <path fill="#D31342" d="M11.85 6.287a.51.51 0 0 0-.047-.763L6.44 1.146a.705.705 0 0 0-.872.01l-5.381 4.6a.506.506 0 0 0-.026.764l.135.13c.223.218.585.244.807.058l.402-.336v4.919c0 .301.263.546.586.546h2.097c.324 0 .586-.245.586-.546V7.85h2.675v3.44a.533.533 0 0 0 .55.546h2.223c.323 0 .585-.244.585-.546V6.442s.112.09.249.203c.136.112.424.022.641-.201l.153-.157Z"></path>
  </symbol>
  
  <symbol xmlns="http://www.w3.org/2000/svg" fill="none" viewBox="0 0 12 12" id="dots-menu-section-4">
    <circle cx="6" cy="6" r="6" fill="#D9D9D9"></circle>
  </symbol>
  
   <symbol xmlns="http://www.w3.org/2000/svg" fill="none" viewBox="0 0 288 2" id="separator-lines-section-5">
    <path stroke="#E1E1E1" d="M0 1h288"></path>
  </symbol>
  
  <symbol xmlns="http://www.w3.org/2000/svg" fill="none" viewBox="0 0 8 10" id="greater-than-section-5">
    <path stroke="#fff" stroke-linecap="round" stroke-linejoin="round" stroke-width="2" d="m1.616 1 4.428 4-4.428 4"></path>
  </symbol>
  
  <symbol xmlns="http://www.w3.org/2000/svg" fill="none" viewBox="0 0 25 6" id="three-dots-section-2">
    <g fill="#fff">
      <ellipse cx="12.418" cy="3" rx="2.866" ry="3"></ellipse>
      <ellipse cx="2.866" cy="3" rx="2.866" ry="3"></ellipse>
      <ellipse cx="21.97" cy="3" rx="2.866" ry="3"></ellipse>
    </g>
  </symbol>
  
  <symbol xmlns="http://www.w3.org/2000/svg" fill="none" viewBox="0 0 50 50" id="section-3-apples">
    <g clip-path="url(#a)">
      <path fill="#FFA5BA" d="M46.29 33.454c-2.018-.716-3.72-.537-5.065.028.226-1.37.735-2.862 1.827-3.876a1.664 1.664 0 1 0-2.263-2.44c-1.92 1.782-2.665 4.295-2.928 6.377a6.339 6.339 0 0 0-1.653-.486l2.953-15.359a1.663 1.663 0 0 0-1.633-1.978h-.32c.147-.782.221-1.558.215-2.297-.025-3.115-1.411-5.461-3.709-6.276-2.202-.782-4.046-.547-5.48.103.228-1.525.773-3.224 2.003-4.366a1.664 1.664 0 1 0-2.263-2.44c-2.063 1.915-2.836 4.634-3.096 6.854-1.149-.543-2.569-.822-4.233-.516-1.71-2.455-4.082-3.586-6.39-3.033-2.267.544-3.684 1.742-4.532 3.065-.64-1.405-1.112-3.127-.706-4.743a1.664 1.664 0 0 0-3.227-.812c-.686 2.728.148 5.43 1.14 7.434-1.588.215-3.309 1.015-4.764 2.916-.903 1.18-1.208 2.653-.931 4.218a1.663 1.663 0 0 0-1.052 1.871L6.134 48.65c.15.784.836 1.35 1.634 1.35h23.808c.797 0 1.483-.566 1.634-1.35l.058-.304c.449.309.93.568 1.448.76 1.979.737 3.823.435 4.756.185.494.132 1.242.279 2.131.279.791 0 1.693-.117 2.625-.464 3.688-1.374 5.648-5.999 5.618-9.653-.023-2.975-1.352-5.218-3.555-5.999ZM35.43 19.048c-.767 7.352-6.957 12.358-15.58 12.358-8.623 0-14.814-5.006-15.58-12.358h31.16ZM25.05 11.742c.288.545.838.886 1.454.886.617 0 1.166-.341 1.454-.886a4.113 4.113 0 0 1 1.202-1.214c.983-.637 2.109-.718 3.442-.245 1.329.471 1.487 2.372 1.493 3.167.006.724-.1 1.502-.297 2.27H22.663c.368-1.859.147-3.894-.452-5.733a3.306 3.306 0 0 1 1.636.541 4.116 4.116 0 0 1 1.202 1.214Zm-20.242 1.89c.86-1.123 1.848-1.67 3.02-1.67h.003c.891 0 1.588.324 1.666.362.533.296 1.17.269 1.685-.058.518-.33.797-.925.752-1.536-.009-.12-.18-2.959 3.099-3.746 1.37-.33 2.54 1.178 2.978 1.84 1.262 1.908 1.909 4.857 1.214 6.896H4.618c-.22-.692-.28-1.474.19-2.088Zm4.335 33.04L5.845 29.52c.216.207.438.41.668.607 3.45 2.971 8.186 4.607 13.336 4.607s9.887-1.636 13.336-4.607c.08-.069.16-.14.238-.21l-.674 3.505c-.032.01-.063.02-.095.032-2.204.782-3.533 3.024-3.556 5.999-.015 1.82.464 3.88 1.403 5.659l-.3 1.56H9.143Zm33.923-.684c-1.474.549-2.939.027-2.993.007a1.63 1.63 0 0 0-1.2 0c-.015.006-1.5.55-2.995-.007-2.09-.779-3.473-3.994-3.453-6.509.006-.727.148-2.466 1.341-2.889a4.381 4.381 0 0 1 1.467-.273c1.73 0 2.59 1.269 2.785 1.6.287.547.836.89 1.454.89s1.168-.343 1.455-.89c.244-.414 1.526-2.293 4.252-1.327 1.192.423 1.334 2.161 1.34 2.89.02 2.514-1.363 5.73-3.453 6.508Z"></path>
    </g>
    <defs>
      <clipPath id="a">
        <path fill="#fff" d="M0 0h50v50H0z"></path>
      </clipPath>
    </defs>
  </symbol>
  <symbol xmlns="http://www.w3.org/2000/svg" fill="none" viewBox="0 0 50 50" id="section-3-milk">
    <g fill="#FFA5BA">
      <path d="M12.645.225c-.546.293-.863.879-.863 1.572.01 1.27.326 2.432.96 3.437l.277.46-.527.595c-.595.664-.739.908-1.007 1.7-.221.644-.24 1.816-.048 2.47.671 2.246 2.897 3.545 5.074 2.969.739-.196 1.19-.44 1.88-1.026l.586-.488.547.274c.307.156.825.38 1.16.507l.595.215v1.094c0 1.728.355 2.754 1.266 3.682.912.927 2.341 1.406 3.579 1.191.882-.156 1.745-.596 2.33-1.191.912-.928 1.267-1.954 1.267-3.682V12.91l.604-.215c.326-.127.845-.351 1.152-.508l.546-.273.585.488c.691.586 1.142.83 1.88 1.026 2.178.576 4.404-.723 5.075-2.969.192-.654.173-1.826-.048-2.47-.268-.792-.412-1.036-1.007-1.7l-.527-.596.278-.459c.633-1.005.95-2.168.96-3.437 0-.693-.318-1.28-.864-1.572L37.942 0H13.058l-.413.225ZM35.67 3.28c0 .03-.279.489-.624 1.035-1.017 1.612-.978 1.963.374 3.39.49.517.94 1.034 1.008 1.151.364.723-.365 1.622-1.17 1.436-.193-.04-.615-.38-1.229-.986-1.228-1.211-1.65-1.348-2.59-.81-1.084.624-2.465 1.259-3.137 1.444-.95.274-1.276.479-1.525.996-.201.4-.22.567-.22 2.13 0 1.923-.078 2.236-.624 2.5-.394.195-.47.195-.864 0-.547-.264-.623-.577-.623-2.5 0-1.563-.02-1.73-.211-2.13-.26-.507-.585-.722-1.535-.996-.825-.234-2.043-.771-2.715-1.21-.633-.41-1.19-.567-1.63-.489-.289.059-.576.283-1.344 1.035-.633.616-1.084.977-1.276 1.016-.796.186-1.525-.723-1.16-1.436.067-.117.518-.634 1.007-1.152 1.352-1.426 1.39-1.777.374-3.389-.345-.546-.624-1.005-.624-1.035 0-.039 4.576-.058 10.169-.058 5.593 0 10.169.02 10.169.058ZM9.758 20.635c-.49.332-.758.8-.758 1.318 0 .352 4.873 26.445 5.046 26.992.086.303.441.664.815.86.355.195.605.195 10.639.195 10.034 0 10.284 0 10.639-.195.374-.196.729-.557.815-.86.173-.547 5.046-26.64 5.046-26.992 0-.517-.269-.986-.758-1.318l-.326-.225H10.084l-.326.225Zm28.453 3.554c-.096.782-.653 2.48-1.065 3.252-2.005 3.711-5.804 5.967-10.514 6.23-3.559.206-6.571-.517-9.094-2.177a10.954 10.954 0 0 1-3.54-3.808c-.48-.85-1.113-2.676-1.209-3.497l-.067-.556h25.556l-.067.556ZM15.859 34.248c4.115 2.774 10.264 3.506 15.445 1.826 1.727-.556 3.492-1.494 4.969-2.636.432-.342.46-.342.412-.128-.028.127-.594 3.116-1.256 6.631-.662 3.516-1.218 6.494-1.247 6.612l-.048.224H16.866l-.048-.224c-.029-.117-.585-3.096-1.247-6.612-.662-3.515-1.228-6.504-1.256-6.63-.048-.215-.02-.215.412.127.25.195.768.556 1.132.81Z"></path>
    </g>
  </symbol>
  
  <symbol fill="none" xmlns="http://www.w3.org/2000/svg" viewBox="0 0 46 52" id="section-3-heart">
	<path d="M1.08336 18.1357L1.08339 18.1359C2.03783 22.5167 4.16167 26.4039 7.50728 29.775C10.4958 32.798 13.1215 34.6343 17.2695 36.5405C17.2698 36.5407 17.2702 36.5408 17.2705 36.541L19.2825 37.4855V44.1539V51V51.25H19.5325H20.6883H21.8442H22.0942V51V44.5478V38.4104L22.352 38.4857L22.3533 38.486C22.7258 38.5927 23.2743 38.5927 23.6468 38.486L23.6481 38.4857L23.9059 38.4104V44.5478V51V51.25H24.1559H25.3118H26.4676H26.7176V51V44.1539V37.4688L28.6324 36.5976L28.6336 36.5971C32.6458 34.7477 35.5611 32.7429 38.3968 29.8684L38.397 29.8682C42.9244 25.2711 45.2497 20.0338 45.2499 14.3322C45.2694 8.07514 41.9836 2.9571 36.7781 1.2093C35.6586 0.820095 35.0649 0.764313 33.0152 0.783142M1.08336 18.1357L23.2064 4.63963L23.0478 4.52232M1.08336 18.1357C0.866368 17.137 0.755017 15.7722 0.750166 14.4378C0.745322 13.1054 0.846546 11.7799 1.06487 10.8612C2.23925 5.67977 5.84783 1.84365 10.5219 0.863762M1.08336 18.1357L10.5219 0.863762M33.0152 0.783142L33.0175 1.03313L33.0153 0.783142C33.0153 0.783142 33.0152 0.783142 33.0152 0.783142ZM33.0152 0.783142C31.9463 0.792515 31.2762 0.815857 30.668 0.902878C30.0569 0.990295 29.5159 1.14087 28.7047 1.39474L28.7022 1.39553C26.7723 2.02188 24.8741 3.01043 23.6119 4.04729L23.6096 4.04922L23.0478 4.52232M23.0478 4.52232L22.1662 3.87062L22.1657 3.87026C19.4484 1.87175 16.6649 0.897934 13.3973 0.764584L13.3955 0.764507C12.8315 0.745579 12.2288 0.745567 11.7127 0.762161C11.2054 0.778469 10.7601 0.81131 10.5219 0.863762M23.0478 4.52232L10.5219 0.863762M21.3836 6.87937L21.383 6.87875C20.9969 6.51179 20.2963 6.00657 19.5297 5.5261C18.7658 5.04729 17.9568 4.60583 17.3591 4.36006C16.7958 4.14095 15.7146 3.82689 14.9213 3.67976C11.7123 3.09176 9.25032 3.71591 7.0805 5.64641L7.07887 5.64783C6.62023 6.04881 6.13464 6.5764 5.78629 7.01869C5.61905 7.23104 5.48885 7.4169 5.40893 7.55517C5.51357 7.57449 5.64727 7.59843 5.80405 7.62592C6.19043 7.69368 6.71402 7.78254 7.28127 7.87616C9.2817 8.18822 10.8334 8.60649 12.4963 9.40769C14.1541 10.2064 15.9134 11.3814 18.3338 13.1934L18.3362 13.1952C19.3188 13.9496 20.9776 14.9161 22.644 15.6994L22.6441 15.6994L22.6483 15.7014C23.3918 16.0681 24.1077 16.4354 24.6604 16.7352C24.9365 16.8849 25.1739 17.0189 25.3545 17.1282C25.4447 17.1827 25.5229 17.2325 25.5856 17.2759C25.6429 17.3156 25.7028 17.3604 25.7447 17.4054C25.9529 17.6278 26.1254 17.8511 26.2618 18.132C26.3976 18.4117 26.4917 18.7367 26.558 19.1573C26.6893 19.9895 26.7176 21.2393 26.7176 23.3344C26.7176 25.235 26.7227 26.2337 26.7721 26.8039C26.7967 27.0883 26.8309 27.2438 26.8706 27.3435C26.9061 27.4328 26.9497 27.4875 27.0273 27.563C27.4276 27.9528 27.9743 27.937 28.2659 27.6126L28.2658 27.6125L28.2718 27.6063C28.3528 27.5221 28.43 27.3875 28.4749 26.865C28.5195 26.3458 28.5293 25.5045 28.5293 24.0659C28.5293 22.1605 28.5759 21.0007 28.7881 20.2013C28.8964 19.7935 29.049 19.4727 29.2629 19.1908C29.4748 18.9115 29.7391 18.6807 30.0555 18.4449L30.0585 18.4427C30.3778 18.212 30.6559 18.0609 31.1093 17.9417C31.5483 17.8262 32.1534 17.7402 33.1236 17.628L33.1248 17.6278C36.1543 17.2918 37.9047 16.9016 39.9986 16.1046L39.9988 16.1046C40.6563 15.8551 41.1423 15.6684 41.5055 15.5013C41.871 15.3332 42.0857 15.1962 42.2181 15.057C42.3408 14.928 42.4051 14.7839 42.4351 14.566C42.4669 14.3349 42.458 14.0392 42.4385 13.6113L42.4384 13.6113L42.4383 13.6061C42.4195 12.8586 42.2302 11.6029 42.023 10.8326L42.0227 10.8316C40.8708 6.47433 37.2753 3.42135 33.3835 3.42135C30.4793 3.42135 26.9366 4.78597 24.7476 6.77024L24.7464 6.77132C24.3892 7.09093 24.0876 7.34282 23.8172 7.51701C23.5457 7.69184 23.2855 7.80185 23.0122 7.81249C22.7352 7.82328 22.4803 7.73079 22.223 7.56975C21.9696 7.4112 21.698 7.176 21.3836 6.87937ZM5.17892 7.50983C5.17591 7.50893 5.17425 7.50854 5.17447 7.50864C5.17464 7.50872 5.17602 7.50911 5.17892 7.50983ZM14.646 13.9706L14.6445 13.9695C12.6422 12.4842 10.4569 11.3949 8.53117 10.9168C7.64875 10.7044 6.52412 10.5279 5.6016 10.4374C5.13982 10.3921 4.73527 10.369 4.44044 10.3726C4.29177 10.3744 4.18014 10.383 4.10621 10.3962C4.09457 10.3982 4.08479 10.4002 4.07669 10.4021C3.99781 10.5576 3.91368 10.8319 3.83642 11.2086C3.75233 11.6185 3.68179 12.1209 3.6306 12.6599C3.528 13.7401 3.50506 14.946 3.59899 15.824C4.11205 20.5782 6.18011 24.5959 10.1504 28.4058L10.1512 28.4065C13.2827 31.4369 17.1801 33.8 21.5966 35.2891L21.5966 35.2891L21.6001 35.2904L23.0006 35.7862L24.4202 35.29L24.4216 35.2895C28.553 33.8742 32.6054 31.5093 35.5437 28.76C37.5691 26.8624 38.6131 25.5682 39.9487 23.2833L39.9497 23.2817C40.3629 22.5867 40.9301 21.3265 41.3694 20.2069C41.5885 19.6486 41.773 19.1322 41.8892 18.7455C41.9309 18.6064 41.9627 18.4878 41.9842 18.392C41.9163 18.4097 41.8371 18.4319 41.7478 18.4583C41.4221 18.5549 40.9795 18.703 40.5018 18.8798L40.5005 18.8803C38.5706 19.5825 35.6787 20.2056 33.3479 20.4136L33.3463 20.4137C33.3114 20.4166 33.2773 20.4194 33.2437 20.4222C32.7186 20.4653 32.3529 20.4954 32.081 20.5667C31.8112 20.6375 31.6718 20.7394 31.5764 20.9178C31.4673 21.1218 31.402 21.4506 31.3702 22.017C31.3408 22.54 31.3409 23.2291 31.341 24.1514C31.3411 24.2155 31.3411 24.2808 31.3411 24.3473C31.3411 26.1308 31.3179 27.1836 31.1851 27.8958C31.1175 28.2584 31.0201 28.5423 30.8784 28.7952C30.7377 29.0462 30.5596 29.2551 30.3461 29.4727C29.9644 29.8735 29.582 30.1631 29.1543 30.3508C28.7255 30.5389 28.2659 30.618 27.7391 30.618C26.9259 30.618 26.2322 30.4566 25.6534 30.1031C25.0736 29.749 24.6298 29.2148 24.2957 28.5051L24.2956 28.5049C24.1255 28.1425 24.0287 27.7972 23.9741 27.1005C23.9202 26.4137 23.9059 25.3671 23.9059 23.597C23.9059 22.1247 23.8914 21.0989 23.8557 20.4168C23.8378 20.0751 23.8148 19.8265 23.7871 19.6538C23.7733 19.5674 23.7591 19.5058 23.7459 19.4639C23.7369 19.4352 23.7305 19.4227 23.7292 19.4202C23.7292 19.4202 23.7292 19.4202 23.7292 19.4202C23.7277 19.4185 23.7175 19.4077 23.6916 19.3873C23.6646 19.366 23.6279 19.34 23.5811 19.3097C23.4874 19.249 23.3629 19.1771 23.2147 19.098C22.919 18.9404 22.5407 18.7607 22.1513 18.5942C20.5163 17.9118 18.3608 16.7021 17.0528 15.7327C16.5722 15.3771 15.495 14.5905 14.6471 13.9714L14.646 13.9706ZM4.04543 10.4111C4.0423 10.4125 4.04291 10.4125 4.04606 10.4109L4.04543 10.4111ZM4.10544 10.3503L4.10365 10.3533C4.10424 10.3523 4.10485 10.3513 4.10544 10.3503Z" fill="#FFA5BA" stroke="#FFA5BA" stroke-width="0.5"/>
  </symbol>
  
</svg>